<?xml version="1.0" standalone="no"?>
<!DOCTYPE svg PUBLIC "-//W3C//DTD SVG 20010904//EN"
 "http://www.w3.org/TR/2001/REC-SVG-20010904/DTD/svg10.dtd">
<svg version="1.0" xmlns="http://www.w3.org/2000/svg"
 width="418.000000pt" height="325.000000pt" viewBox="0 0 418.000000 325.000000"
 preserveAspectRatio="xMidYMid meet">

<g transform="translate(0.000000,325.000000) scale(0.100000,-0.100000)"
fill="#000000" stroke="none">
<path d="M1980 2593 c-14 -2 -56 -16 -95 -30 -54 -21 -83 -40 -127 -83 -57
-57 -79 -104 -82 -175 -1 -29 1 -30 37 -27 33 3 37 1 37 -19 0 -19 -4 -21 -35
-16 -19 3 -37 1 -41 -5 -3 -5 -3 -48 1 -94 l7 -85 41 3 c36 3 42 0 42 -17 0
-17 -6 -20 -41 -17 l-41 3 -12 -54 c-6 -30 -25 -76 -42 -102 -16 -26 -28 -49
-25 -52 7 -8 87 51 128 94 20 21 52 63 72 93 l36 54 -37 38 c-20 21 -45 40
-55 44 -26 8 -24 54 2 54 11 0 20 -4 20 -10 0 -12 69 -90 80 -90 4 0 20 19 35
41 l27 41 -38 39 c-21 21 -46 41 -56 45 -10 3 -18 14 -18 25 0 24 38 26 47 2
7 -21 63 -83 74 -83 9 0 109 96 109 104 0 3 -20 6 -44 6 -26 0 -48 6 -56 15
-7 8 -18 15 -25 15 -7 0 -18 7 -25 16 -11 12 -10 18 3 31 13 13 19 14 31 3 9
-7 16 -18 16 -26 0 -41 128 -47 205 -10 l50 24 -70 2 c-64 1 -73 4 -109 34
-27 23 -37 39 -33 50 9 24 36 19 47 -8 17 -45 46 -56 150 -56 99 0 132 10 177
52 22 20 22 22 6 41 -32 35 -48 37 -103 17 -58 -21 -70 -19 -70 12 0 18 5 20
33 15 53 -8 67 8 22 27 -20 9 -40 16 -44 16 -12 0 -81 -75 -81 -89 0 -19 -44
-9 -48 12 -2 10 4 20 15 24 22 7 63 43 63 55 0 8 -113 9 -160 1z m-21 -57 c9
-11 9 -17 -1 -25 -7 -5 -33 -27 -56 -47 -30 -26 -57 -40 -85 -44 -44 -6 -48
-14 -32 -67 5 -17 3 -25 -10 -29 -27 -11 -34 8 -28 69 l6 57 48 0 c45 0 50 3
91 50 47 55 50 56 67 36z"/>
<path d="M2362 2442 c-33 -30 -50 -38 -191 -93 -135 -52 -196 -111 -311 -299
-63 -102 -125 -177 -174 -211 -20 -13 -36 -27 -36 -30 0 -3 44 -9 98 -12 86
-5 169 -21 226 -43 17 -6 18 -4 12 17 -4 13 -10 47 -12 74 l-5 50 14 -36 c24
-62 56 -107 120 -164 110 -98 232 -148 392 -162 74 -6 77 -5 67 13 -21 40 -62
231 -68 313 -10 149 -18 160 -133 191 -58 16 -96 55 -115 120 -17 58 -21 110
-8 110 4 0 24 -16 43 -36 18 -20 67 -58 107 -86 77 -52 102 -89 118 -173 9
-47 49 -95 80 -95 13 0 24 2 24 5 0 9 -141 439 -158 482 -9 23 -26 53 -37 67
l-21 26 -32 -28z"/>
<path d="M674 1302 c-22 -14 -34 -52 -34 -104 0 -75 22 -98 94 -98 56 0 86 19
86 53 0 21 -23 22 -40 1 -9 -10 -26 -14 -49 -12 l-36 3 0 60 0 60 38 3 c26 2
39 -1 43 -12 9 -23 44 -20 44 2 0 33 -33 52 -86 52 -27 0 -54 -4 -60 -8z"/>
<path d="M910 1205 c0 -98 1 -105 20 -105 19 0 20 7 20 105 0 98 -1 105 -20
105 -19 0 -20 -7 -20 -105z"/>
<path d="M1047 1304 c-4 -4 -7 -22 -7 -40 0 -30 -3 -33 -32 -36 -25 -2 -34 -8
-36 -25 -3 -20 1 -23 32 -23 35 0 36 -1 36 -40 0 -36 2 -40 25 -40 l26 0 -3
102 c-2 83 -6 103 -18 106 -9 1 -19 0 -23 -4z"/>
<path d="M1172 1248 l3 -63 65 -5 65 -5 3 -37 c3 -30 7 -38 22 -38 18 0 20 7
18 83 -1 117 -9 127 -104 127 l-75 0 3 -62z m127 13 c23 -15 2 -31 -39 -31
-39 0 -56 12 -45 30 8 12 65 13 84 1z"/>
<path d="M1457 1292 c-11 -12 -17 -36 -17 -65 0 -40 3 -47 19 -47 16 0 20 8
23 43 3 42 3 42 43 42 l40 0 0 -60 0 -60 -36 -3 c-23 -2 -40 2 -49 12 -17 22
-40 20 -40 -3 0 -34 28 -51 84 -51 73 0 91 21 91 105 0 84 -18 105 -90 105
-38 0 -56 -5 -68 -18z"/>
<path d="M1717 1292 c-11 -12 -17 -36 -17 -65 0 -40 3 -47 20 -47 17 0 20 7
20 40 0 34 4 41 24 46 54 13 61 5 66 -81 5 -74 7 -80 28 -83 21 -3 22 -1 22
82 0 73 -3 89 -20 106 -27 27 -119 28 -143 2z"/>
<path d="M1985 1296 c-14 -10 -19 -27 -19 -62 -1 -43 2 -49 19 -49 16 0 21 8
25 40 5 39 6 40 45 40 l40 0 0 -60 0 -60 -33 -3 c-22 -2 -41 3 -53 14 -23 20
-51 12 -42 -13 10 -31 35 -43 88 -43 72 0 85 17 85 107 0 55 -4 73 -18 86 -23
21 -110 23 -137 3z"/>
<path d="M2246 1291 c-10 -11 -16 -36 -16 -64 0 -40 3 -47 19 -47 16 0 20 8
23 43 3 37 6 42 28 42 24 0 25 -2 28 -83 3 -79 4 -83 25 -80 20 3 22 9 25 78
3 82 10 95 41 85 19 -6 21 -14 21 -86 0 -72 2 -79 20 -79 18 0 20 7 20 83 0
120 -6 125 -124 125 -77 0 -97 -3 -110 -17z"/>
<path d="M2570 1245 l0 -65 76 0 c72 0 75 1 72 23 -3 19 -10 22 -55 25 -44 3
-53 6 -53 22 0 17 9 19 68 22 52 2 67 6 67 18 0 12 -18 16 -87 18 l-88 3 0
-66z"/>
<path d="M2830 1291 c0 -15 9 -19 48 -23 26 -2 66 -2 90 0 33 3 42 8 42 23 0
17 -8 19 -90 19 -81 0 -90 -2 -90 -19z"/>
<path d="M3100 1245 l0 -65 64 0 c68 0 76 -6 76 -56 0 -17 6 -24 20 -24 18 0
19 7 18 87 -2 113 -11 123 -108 123 l-70 0 0 -65z m128 3 c3 -15 -4 -18 -37
-18 -40 0 -58 11 -46 31 11 17 79 7 83 -13z"/>
<path d="M3360 1270 c0 -31 6 -47 26 -67 22 -22 32 -25 76 -21 61 6 78 24 78
85 0 36 -3 43 -19 43 -16 0 -20 -8 -23 -37 -3 -37 -4 -38 -45 -41 l-42 -3 -3
38 c-2 31 -7 39 -25 41 -21 3 -23 -1 -23 -38z"/>
<path d="M2900 1175 c0 -68 2 -75 20 -75 18 0 20 7 20 75 0 68 -2 75 -20 75
-18 0 -20 -7 -20 -75z"/>
<path d="M1177 1163 c-4 -3 -7 -19 -7 -35 0 -21 5 -28 20 -28 16 0 20 7 20 35
0 33 -16 46 -33 28z"/>
<path d="M1707 1163 c-4 -3 -7 -19 -7 -35 0 -21 5 -28 20 -28 16 0 20 7 20 35
0 33 -16 46 -33 28z"/>
<path d="M2237 1164 c-4 -4 -7 -20 -7 -36 0 -22 5 -28 21 -28 17 0 20 5 17 32
-3 31 -17 45 -31 32z"/>
<path d="M2570 1151 c0 -38 27 -51 106 -51 66 0 75 2 72 18 -3 14 -15 18 -65
20 -38 2 -66 8 -73 17 -18 21 -40 18 -40 -4z"/>
<path d="M3107 1164 c-4 -4 -7 -20 -7 -36 0 -22 5 -28 21 -28 17 0 20 5 17 32
-3 31 -17 45 -31 32z"/>
<path d="M3437 1164 c-4 -4 -7 -20 -7 -36 0 -23 4 -28 26 -28 23 0 25 3 22 32
-3 31 -25 48 -41 32z"/>
<path d="M1208 983 c-23 -6 -32 -37 -18 -63 8 -15 21 -20 51 -20 33 0 40 -3
37 -17 -4 -23 -34 -28 -64 -12 -30 16 -43 4 -21 -18 20 -20 79 -22 101 -4 36
30 1 81 -56 81 -18 0 -28 5 -28 15 0 18 41 20 71 5 15 -8 19 -7 19 4 0 28 -45
42 -92 29z"/>
<path d="M1755 965 c-61 -60 0 -155 79 -125 39 14 31 29 -12 23 -46 -6 -65 12
-60 59 3 32 5 33 51 36 50 3 62 16 25 26 -41 10 -58 6 -83 -19z"/>
<path d="M2298 979 c-10 -5 -18 -17 -18 -24 0 -18 5 -18 29 -3 24 15 53 3 49
-19 -2 -12 -14 -19 -36 -21 -25 -3 -35 -10 -43 -29 -5 -13 -7 -29 -3 -34 7
-12 101 -12 109 1 4 6 -10 10 -34 10 -22 0 -43 5 -46 10 -6 10 1 14 47 24 39
9 49 53 18 78 -25 20 -46 22 -72 7z"/>
<path d="M2502 974 c-18 -12 -22 -25 -22 -64 0 -42 4 -52 25 -66 51 -33 103
20 89 93 -9 50 -50 67 -92 37z m66 -62 c2 -32 -1 -44 -14 -49 -36 -14 -62 24
-50 73 5 20 12 25 34 22 24 -3 27 -8 30 -46z"/>
<path d="M2708 980 c-10 -6 -18 -18 -18 -25 0 -17 16 -20 25 -5 3 6 17 10 31
10 20 0 25 -4 22 -22 -2 -16 -12 -24 -36 -29 -40 -8 -39 -8 -44 -39 -3 -24 0
-25 55 -28 35 -2 57 1 57 8 0 5 -18 10 -40 10 -29 0 -40 4 -40 15 0 9 9 15 24
15 43 0 69 43 48 77 -11 18 -64 25 -84 13z"/>
<path d="M1400 910 c0 -40 4 -70 10 -70 6 0 10 30 10 70 0 40 -4 70 -10 70 -6
0 -10 -30 -10 -70z"/>
<path d="M1510 909 c0 -52 3 -70 13 -67 6 3 14 24 17 49 l5 44 33 -48 c48 -68
66 -61 70 26 2 54 0 67 -12 67 -11 0 -16 -13 -18 -47 l-3 -48 -34 48 c-20 26
-42 47 -53 47 -16 0 -18 -9 -18 -71z"/>
<path d="M1960 910 l0 -70 55 0 c30 0 55 5 55 10 0 6 -18 10 -39 10 -24 0 -41
5 -44 14 -8 19 1 26 35 26 15 0 28 4 28 9 0 11 -25 21 -52 21 -38 0 -11 25 30
28 62 5 51 22 -13 22 l-55 0 0 -70z"/>
<path d="M2921 938 c-40 -55 -40 -68 4 -68 22 0 38 -6 44 -17 19 -32 36 6 33
70 -4 52 -6 57 -27 57 -16 0 -33 -14 -54 -42z m49 -18 c0 -20 -25 -38 -36 -27
-8 7 15 47 26 47 6 0 10 -9 10 -20z"/>
</g>
</svg>
